<svg width="392" height="287" viewBox="0 0 392 287" fill="none" xmlns="http://www.w3.org/2000/svg">
<rect x="0.5" y="0.5" width="391" height="286" fill="#0007B9" stroke="#F2F2F2"/>
<path d="M215.597 109.848L201.259 103.388L191.549 105.655V106.335L203.855 112.909L215.597 109.962V109.848Z" fill="url(#paint0_linear_29803_5906)"/>
<path d="M219.887 130.704L202.274 122.543L187.935 126.397V127.303L203.065 135.691L220 130.704H219.887Z" fill="url(#paint1_linear_29803_5906)"/>
<path d="M191.549 106.335L201.259 104.068L212.097 101.574V95L191.549 99.5338V106.335V106.335Z" fill="white"/>
<path d="M215.597 109.848L203.855 112.795L187.935 116.762V127.303L202.274 123.45L215.597 119.823V109.848V109.848Z" fill="white"/>
<path d="M171 145.212C174.387 150.086 178.903 154.166 184.21 157L219.887 145.325V130.704L202.952 135.691L171 145.099V145.212Z" fill="white"/>
<path fill-rule="evenodd" clip-rule="evenodd" d="M144.669 185.943C148.62 185.943 151.699 182.927 151.699 179.171C151.699 175.415 148.62 172.398 144.669 172.398H137V192.545H141.067V185.943H144.669ZM147.632 179.142C147.632 179.152 147.632 179.161 147.632 179.171V179.114C147.632 179.123 147.632 179.133 147.632 179.142ZM144.611 176.098C146.345 176.098 147.618 177.392 147.632 179.142C147.618 180.892 146.345 182.187 144.611 182.187H141.009V176.098H144.611Z" fill="white"/>
<path d="M171.104 172.398V192.545H167.096V184.179H159.426V192.545H155.359V172.398H159.426V180.423H167.096V172.398H171.104Z" fill="white"/>
<path fill-rule="evenodd" clip-rule="evenodd" d="M179.994 188.902H188.186H188.302L189.522 192.545H193.937L186.675 172.398H181.62L174.416 192.545H178.774L179.994 188.902ZM184.061 176.951L186.907 185.203H186.849H181.214L184.061 176.951Z" fill="white"/>
<path fill-rule="evenodd" clip-rule="evenodd" d="M201.142 185.545H204.221H204.28L208.405 192.545H212.762L208.23 184.919C210.554 183.894 212.181 182.699 212.181 179.057C212.181 175.415 209.102 172.398 205.325 172.398H197.075V192.545H201.142V185.545ZM205.326 182.073H201.143V176.098H205.326C206.836 176.098 208.115 177.35 208.115 179.057C208.115 180.764 206.836 182.073 205.326 182.073Z" fill="white"/>
<path fill-rule="evenodd" clip-rule="evenodd" d="M226.009 172C220.024 172 215.318 176.553 215.318 182.472C215.318 188.333 220.083 192.943 226.009 192.943C231.935 192.943 236.699 188.39 236.699 182.472C236.699 176.553 231.993 172 226.009 172ZM226.009 175.87C229.727 175.87 232.632 178.602 232.632 182.472C232.632 186.342 229.727 189.073 226.009 189.073C222.291 189.073 219.386 186.342 219.386 182.472C219.386 178.602 222.291 175.87 226.009 175.87Z" fill="white"/>
<path d="M239.488 187.992L242.974 186C243.729 187.878 245.123 189.073 247.68 189.073C250.236 189.073 250.991 188.049 250.991 186.967C250.991 185.886 249.597 184.919 246.576 184.008C243.439 183.098 240.359 181.846 240.359 177.976C240.359 174.106 243.613 172 247.099 172C250.585 172 253.083 173.707 254.477 176.553L251.05 178.488C250.294 176.951 249.19 175.87 247.099 175.87C245.007 175.87 244.368 176.724 244.368 177.862C244.368 179 245.182 179.74 248.261 180.707C251.514 181.732 255 182.756 255 186.911C255 191.065 251.921 193 247.506 193C243.09 193 240.534 191.008 239.43 187.992H239.488Z" fill="white"/>
<path d="M22.3543 29H15.9283V18.99H16.9503V28.104H22.3543V29ZM24.4239 20.432H23.2479V19.256H24.4239V20.432ZM24.2979 29H23.3879V21.86H24.2979V29ZM31.1938 22.98V21.86H32.1038V28.552C32.1038 30.582 30.8438 31.562 28.8838 31.562C26.9518 31.562 25.9298 30.624 25.8178 29.378H26.7698C26.9098 30.148 27.5118 30.764 28.8978 30.764C30.3398 30.764 31.1938 30.134 31.1938 28.678V27.348H31.1658C30.7458 28.09 29.9618 28.664 28.7578 28.664C27.0498 28.664 25.6218 27.544 25.6218 25.164C25.6218 22.812 27.0498 21.692 28.7578 21.692C29.9618 21.692 30.7458 22.266 31.1658 22.98H31.1938ZM28.8838 27.866C30.1998 27.866 31.1938 26.998 31.1938 25.164C31.1938 23.358 30.1998 22.49 28.8838 22.49C27.4138 22.49 26.5738 23.554 26.5738 25.164C26.5738 26.802 27.4138 27.866 28.8838 27.866ZM37.1528 21.692C38.4268 21.692 39.4908 22.406 39.4908 23.988V29H38.5808V24.184C38.5808 23.274 38.1608 22.49 36.9288 22.49C35.5708 22.49 34.6748 23.442 34.6748 24.492V29H33.7648V18.99H34.6748V22.882H34.7028C35.1088 22.294 35.8788 21.692 37.1528 21.692ZM43.7959 21.86V22.658H42.3539V27.166C42.3539 28.048 42.5499 28.258 43.2499 28.258C43.4739 28.258 43.5859 28.244 43.7959 28.23V29C43.5159 29.042 43.3479 29.056 43.1239 29.056C42.0879 29.056 41.4439 28.706 41.4439 27.152V22.658H40.3939V21.86H41.4439V19.48H42.3539V21.86H43.7959Z" fill="#999999"/>
<defs>
<linearGradient id="paint0_linear_29803_5906" x1="196.359" y1="111.005" x2="210.788" y2="111.005" gradientUnits="userSpaceOnUse">
<stop stop-color="white"/>
<stop offset="1" stop-color="white" stop-opacity="0.01"/>
</linearGradient>
<linearGradient id="paint1_linear_29803_5906" x1="194.085" y1="122.778" x2="213.474" y2="122.778" gradientUnits="userSpaceOnUse">
<stop stop-color="white"/>
<stop offset="1" stop-color="white" stop-opacity="0.01"/>
</linearGradient>
</defs>
</svg>
