<svg width="392" height="287" viewBox="0 0 392 287" fill="none" xmlns="http://www.w3.org/2000/svg">
<rect x="0.5" y="0.5" width="391" height="286" fill="#EBEEF0" stroke="#B8B8B8"/>
<path d="M136.881 132.538L126.631 127.953L119.689 129.561V130.044L128.487 134.709L136.881 132.618V132.538Z" fill="url(#paint0_linear_29803_5905)"/>
<path d="M139.948 147.338L127.357 141.546L117.106 144.281V144.925L127.922 150.877L140.028 147.338H139.948Z" fill="url(#paint1_linear_29803_5905)"/>
<path d="M119.689 130.044L126.631 128.435L134.379 126.665V122L119.689 125.218V130.044V130.044Z" fill="#0007B9"/>
<path d="M136.881 132.538L128.487 134.629L117.106 137.444V144.925L127.357 142.19L136.881 139.616V132.538V132.538Z" fill="#0007B9"/>
<path d="M105 157.634C107.421 161.093 110.65 163.989 114.443 166L139.948 157.715V147.338L127.841 150.878L105 157.554V157.634Z" fill="#0007B9"/>
<path fill-rule="evenodd" clip-rule="evenodd" d="M163.849 145.608C168.237 145.608 171.657 142.226 171.657 138.015C171.657 133.804 168.237 130.422 163.849 130.422H155.331V153.01H159.848V145.608H163.849ZM167.139 137.983C167.139 137.994 167.139 138.004 167.139 138.015V137.951C167.139 137.962 167.139 137.972 167.139 137.983ZM163.784 134.569C165.709 134.569 167.124 136.021 167.139 137.983C167.124 139.945 165.709 141.397 163.784 141.397H159.783V134.569H163.784Z" fill="#08101C"/>
<path d="M193.209 130.422V153.01H188.756V143.63H180.239V153.01H175.722V130.422H180.239V139.419H188.756V130.422H193.209Z" fill="#08101C"/>
<path fill-rule="evenodd" clip-rule="evenodd" d="M203.082 148.927H212.181H212.31L213.665 153.01H218.569L210.503 130.422H204.889L196.888 153.01H201.727L203.082 148.927ZM207.599 135.527L210.761 144.779H210.697H204.438L207.599 135.527Z" fill="#08101C"/>
<path fill-rule="evenodd" clip-rule="evenodd" d="M226.571 145.162H229.991H230.055L234.637 153.01H239.476L234.443 144.46C237.024 143.311 238.831 141.971 238.831 137.888C238.831 133.804 235.411 130.422 231.217 130.422H222.054V153.01H226.571V145.162ZM231.216 141.269H226.57V134.569H231.216C232.894 134.569 234.314 135.973 234.314 137.887C234.314 139.802 232.894 141.269 231.216 141.269Z" fill="#08101C"/>
<path fill-rule="evenodd" clip-rule="evenodd" d="M254.189 129.975C247.542 129.975 242.315 135.08 242.315 141.716C242.315 148.288 247.607 153.457 254.189 153.457C260.771 153.457 266.062 148.352 266.062 141.716C266.062 135.08 260.835 129.975 254.189 129.975ZM254.188 134.314C258.318 134.314 261.544 137.377 261.544 141.716C261.544 146.055 258.318 149.118 254.188 149.118C250.058 149.118 246.832 146.055 246.832 141.716C246.832 137.377 250.058 134.314 254.188 134.314Z" fill="#08101C"/>
<path d="M269.159 147.905L273.031 145.672C273.87 147.778 275.418 149.118 278.258 149.118C281.097 149.118 281.936 147.969 281.936 146.757C281.936 145.545 280.387 144.46 277.032 143.439C273.547 142.418 270.127 141.014 270.127 136.675C270.127 132.336 273.741 129.975 277.612 129.975C281.484 129.975 284.259 131.889 285.808 135.08L282 137.249C281.162 135.526 279.935 134.314 277.612 134.314C275.289 134.314 274.58 135.271 274.58 136.547C274.58 137.824 275.483 138.653 278.903 139.738C282.517 140.886 286.388 142.035 286.388 146.693C286.388 151.351 282.968 153.521 278.064 153.521C273.16 153.521 270.321 151.287 269.095 147.905H269.159Z" fill="#08101C"/>
<path d="M20.23 29H16.646V18.99H20.272C23.072 18.99 24.626 20.922 24.626 24.016C24.626 27.11 23.03 29 20.23 29ZM17.668 28.104H20.23C22.736 28.104 23.562 26.228 23.562 24.016C23.562 21.79 22.778 19.886 20.258 19.886H17.668V28.104ZM27.8977 29.182C26.4697 29.182 25.5597 28.384 25.5597 27.194C25.5597 25.654 26.6517 25.164 28.4997 24.842C29.6757 24.632 30.4317 24.548 30.4317 23.694C30.4317 22.966 29.9557 22.476 28.8077 22.476C27.4217 22.476 26.9317 22.966 26.8617 24.016H25.8957C25.9657 22.756 26.7637 21.678 28.8357 21.678C30.1517 21.678 31.3137 22.238 31.3137 23.946V27.516C31.3137 28.09 31.3977 28.356 31.7197 28.356C31.7757 28.356 31.8317 28.356 31.9157 28.342V29C31.7617 29.028 31.6077 29.056 31.4397 29.056C30.8377 29.056 30.4877 28.818 30.4317 27.922H30.4037C29.9137 28.734 29.0597 29.182 27.8977 29.182ZM28.0097 28.384C29.4657 28.384 30.4317 27.614 30.4317 26.326V24.996C30.2217 25.29 29.4657 25.458 28.6117 25.598C27.2257 25.85 26.5117 26.2 26.5117 27.11C26.5117 27.936 26.9737 28.384 28.0097 28.384ZM36.0971 21.692C36.3491 21.692 36.5451 21.706 36.7131 21.734V22.63C36.5731 22.602 36.4191 22.588 36.2791 22.588C34.9911 22.588 34.0391 23.624 34.0391 25.01V29H33.1291V21.86H34.0391V23.316H34.0671C34.4311 22.378 35.0891 21.692 36.0971 21.692ZM43.6038 29H42.5258L39.8238 25.052L38.5918 26.2V29H37.6818V18.99H38.5918V25.22L42.1338 21.86H43.2538L40.4398 24.478L43.6038 29Z" fill="#999999"/>
<defs>
<linearGradient id="paint0_linear_29803_5905" x1="123.128" y1="133.358" x2="133.443" y2="133.358" gradientUnits="userSpaceOnUse">
<stop stop-color="#0007B9"/>
<stop offset="1" stop-color="white" stop-opacity="0.01"/>
</linearGradient>
<linearGradient id="paint1_linear_29803_5905" x1="121.61" y1="141.691" x2="135.363" y2="141.691" gradientUnits="userSpaceOnUse">
<stop stop-color="#0007B9"/>
<stop offset="1" stop-color="white" stop-opacity="0.01"/>
</linearGradient>
</defs>
</svg>
