<svg width="392" height="287" viewBox="0 0 392 287" fill="none" xmlns="http://www.w3.org/2000/svg">
<rect x="0.5" y="0.5" width="391" height="286" fill="#08101C" stroke="#F2F2F2"/>
<path d="M137.158 132.538L126.819 127.953L119.817 129.561V130.044L128.691 134.709L137.158 132.618V132.538Z" fill="url(#paint0_linear_29803_5904)"/>
<path d="M140.252 147.338L127.552 141.547L117.212 144.282V144.925L128.121 150.878L140.333 147.338H140.252Z" fill="url(#paint1_linear_29803_5904)"/>
<path d="M119.817 130.044L126.819 128.435L134.635 126.665V122L119.817 125.218V130.044V130.044Z" fill="white"/>
<path d="M137.158 132.537L128.691 134.629L117.212 137.444V144.925L127.552 142.19L137.158 139.616V132.537V132.537Z" fill="white"/>
<path d="M105 157.634C107.442 161.093 110.699 163.989 114.525 166L140.252 157.715V147.338L128.04 150.878L105 157.554V157.634Z" fill="white"/>
<path fill-rule="evenodd" clip-rule="evenodd" d="M164.361 145.608C168.787 145.608 172.236 142.226 172.236 138.015C172.236 133.804 168.787 130.422 164.361 130.422H155.769V153.01H160.325V145.608H164.361ZM167.68 137.983C167.68 137.994 167.68 138.004 167.68 138.015V137.951C167.68 137.962 167.68 137.972 167.68 137.983ZM164.295 134.569C166.238 134.569 167.665 136.021 167.68 137.983C167.665 139.945 166.238 141.397 164.295 141.397H160.26V134.569H164.295Z" fill="white"/>
<path d="M193.976 130.422V153.01H189.485V143.63H180.893V153.01H176.337V130.422H180.893V139.419H189.485V130.422H193.976Z" fill="white"/>
<path fill-rule="evenodd" clip-rule="evenodd" d="M203.935 148.926H213.113H213.243L214.61 153.01H219.557L211.42 130.422H205.758L197.687 153.01H202.568L203.935 148.926ZM208.491 135.526L211.681 144.778H211.615H205.302L208.491 135.526Z" fill="white"/>
<path fill-rule="evenodd" clip-rule="evenodd" d="M227.628 145.162H231.078H231.143L235.764 153.01H240.646L235.569 144.46C238.172 143.311 239.995 141.971 239.995 137.887C239.995 133.804 236.545 130.422 232.314 130.422H223.072V153.01H227.628V145.162ZM232.315 141.269H227.628V134.569H232.315C234.007 134.569 235.439 135.973 235.439 137.887C235.439 139.801 234.007 141.269 232.315 141.269Z" fill="white"/>
<path fill-rule="evenodd" clip-rule="evenodd" d="M255.486 129.975C248.782 129.975 243.51 135.08 243.51 141.716C243.51 148.288 248.847 153.457 255.486 153.457C262.125 153.457 267.463 148.352 267.463 141.716C267.463 135.08 262.19 129.975 255.486 129.975ZM255.487 134.314C259.652 134.314 262.907 137.377 262.907 141.716C262.907 146.055 259.652 149.118 255.487 149.118C251.321 149.118 248.066 146.055 248.066 141.716C248.066 137.377 251.321 134.314 255.487 134.314Z" fill="white"/>
<path d="M270.587 147.905L274.492 145.672C275.338 147.778 276.9 149.118 279.764 149.118C282.628 149.118 283.474 147.969 283.474 146.757C283.474 145.544 281.912 144.46 278.528 143.439C275.013 142.418 271.563 141.014 271.563 136.675C271.563 132.336 275.208 129.975 279.113 129.975C283.019 129.975 285.818 131.889 287.38 135.08L283.54 137.249C282.693 135.526 281.457 134.314 279.113 134.314C276.77 134.314 276.054 135.271 276.054 136.547C276.054 137.823 276.965 138.653 280.415 139.738C284.06 140.886 287.966 142.035 287.966 146.693C287.966 151.351 284.516 153.521 279.569 153.521C274.622 153.521 271.758 151.287 270.522 147.905H270.587Z" fill="white"/>
<path d="M22.8543 29H16.4283V18.99H17.4503V28.104H22.8543V29ZM24.9239 20.432H23.7479V19.256H24.9239V20.432ZM24.7979 29H23.8879V21.86H24.7979V29ZM31.6938 22.98V21.86H32.6038V28.552C32.6038 30.582 31.3438 31.562 29.3838 31.562C27.4518 31.562 26.4298 30.624 26.3178 29.378H27.2698C27.4098 30.148 28.0118 30.764 29.3978 30.764C30.8398 30.764 31.6938 30.134 31.6938 28.678V27.348H31.6658C31.2458 28.09 30.4618 28.664 29.2578 28.664C27.5498 28.664 26.1218 27.544 26.1218 25.164C26.1218 22.812 27.5498 21.692 29.2578 21.692C30.4618 21.692 31.2458 22.266 31.6658 22.98H31.6938ZM29.3838 27.866C30.6998 27.866 31.6938 26.998 31.6938 25.164C31.6938 23.358 30.6998 22.49 29.3838 22.49C27.9138 22.49 27.0738 23.554 27.0738 25.164C27.0738 26.802 27.9138 27.866 29.3838 27.866ZM37.6528 21.692C38.9268 21.692 39.9908 22.406 39.9908 23.988V29H39.0808V24.184C39.0808 23.274 38.6608 22.49 37.4288 22.49C36.0708 22.49 35.1748 23.442 35.1748 24.492V29H34.2648V18.99H35.1748V22.882H35.2028C35.6088 22.294 36.3788 21.692 37.6528 21.692ZM44.2959 21.86V22.658H42.8539V27.166C42.8539 28.048 43.0499 28.258 43.7499 28.258C43.9739 28.258 44.0859 28.244 44.2959 28.23V29C44.0159 29.042 43.8479 29.056 43.6239 29.056C42.5879 29.056 41.9439 28.706 41.9439 27.152V22.658H40.8939V21.86H41.9439V19.48H42.8539V21.86H44.2959Z" fill="#999999"/>
<defs>
<linearGradient id="paint0_linear_29803_5904" x1="123.285" y1="133.358" x2="133.69" y2="133.358" gradientUnits="userSpaceOnUse">
<stop stop-color="white"/>
<stop offset="1" stop-color="white" stop-opacity="0.01"/>
</linearGradient>
<linearGradient id="paint1_linear_29803_5904" x1="121.743" y1="141.694" x2="135.628" y2="141.694" gradientUnits="userSpaceOnUse">
<stop stop-color="white"/>
<stop offset="1" stop-color="white" stop-opacity="0.01"/>
</linearGradient>
</defs>
</svg>
