<svg width="392" height="287" viewBox="0 0 392 287" fill="none" xmlns="http://www.w3.org/2000/svg">
<rect x="0.5" y="0.5" width="391" height="286" fill="white" stroke="#B8B8B8"/>
<path d="M215.597 109.848L201.259 103.388L191.549 105.655V106.335L203.855 112.909L215.597 109.962V109.848Z" fill="url(#paint0_linear_29803_5903)"/>
<path d="M219.887 130.704L202.274 122.543L187.935 126.397V127.303L203.064 135.691L220 130.704H219.887Z" fill="url(#paint1_linear_29803_5903)"/>
<path d="M191.549 106.335L201.259 104.068L212.097 101.574V95L191.549 99.5338V106.335V106.335Z" fill="#0007B9"/>
<path d="M215.597 109.848L203.855 112.795L187.935 116.762V127.303L202.274 123.45L215.597 119.823V109.848V109.848Z" fill="#0007B9"/>
<path d="M171 145.212C174.387 150.086 178.903 154.166 184.21 157L219.887 145.325V130.704L202.952 135.691L171 145.099V145.212Z" fill="#0007B9"/>
<path fill-rule="evenodd" clip-rule="evenodd" d="M144.669 185.943C148.62 185.943 151.699 182.927 151.699 179.171C151.699 175.415 148.62 172.398 144.669 172.398H137V192.545H141.067V185.943H144.669ZM147.632 179.142C147.632 179.152 147.632 179.161 147.632 179.171V179.114C147.632 179.123 147.632 179.133 147.632 179.142ZM144.611 176.098C146.345 176.098 147.618 177.392 147.632 179.142C147.618 180.892 146.345 182.187 144.611 182.187H141.009V176.098H144.611Z" fill="#08101C"/>
<path d="M171.104 172.398V192.545H167.095V184.179H159.426V192.545H155.359V172.398H159.426V180.423H167.095V172.398H171.104Z" fill="#08101C"/>
<path fill-rule="evenodd" clip-rule="evenodd" d="M179.994 188.902H188.186H188.302L189.522 192.545H193.937L186.675 172.398H181.62L174.416 192.545H178.773L179.994 188.902ZM184.061 176.951L186.907 185.203H186.849H181.214L184.061 176.951Z" fill="#08101C"/>
<path fill-rule="evenodd" clip-rule="evenodd" d="M201.142 185.545H204.221H204.28L208.405 192.545H212.762L208.23 184.919C210.554 183.894 212.181 182.699 212.181 179.057C212.181 175.415 209.102 172.398 205.325 172.398H197.075V192.545H201.142V185.545ZM205.326 182.073H201.143V176.098H205.326C206.836 176.098 208.115 177.35 208.115 179.057C208.115 180.764 206.836 182.073 205.326 182.073Z" fill="#08101C"/>
<path fill-rule="evenodd" clip-rule="evenodd" d="M226.009 172C220.024 172 215.318 176.553 215.318 182.472C215.318 188.333 220.083 192.943 226.009 192.943C231.935 192.943 236.699 188.39 236.699 182.472C236.699 176.553 231.993 172 226.009 172ZM226.009 175.87C229.727 175.87 232.632 178.602 232.632 182.472C232.632 186.342 229.727 189.073 226.009 189.073C222.291 189.073 219.386 186.342 219.386 182.472C219.386 178.602 222.291 175.87 226.009 175.87Z" fill="#08101C"/>
<path d="M239.488 187.992L242.974 186C243.729 187.878 245.123 189.073 247.68 189.073C250.236 189.073 250.991 188.049 250.991 186.967C250.991 185.886 249.597 184.919 246.576 184.008C243.439 183.098 240.359 181.846 240.359 177.976C240.359 174.106 243.613 172 247.099 172C250.585 172 253.083 173.707 254.477 176.553L251.05 178.488C250.294 176.951 249.19 175.87 247.099 175.87C245.007 175.87 244.368 176.724 244.368 177.862C244.368 179 245.182 179.74 248.261 180.707C251.514 181.732 255 182.756 255 186.911C255 191.065 251.921 193 247.506 193C243.09 193 240.534 191.008 239.43 187.992H239.488Z" fill="#08101C"/>
<path d="M19.73 29H16.146V18.99H19.772C22.572 18.99 24.126 20.922 24.126 24.016C24.126 27.11 22.53 29 19.73 29ZM17.168 28.104H19.73C22.236 28.104 23.062 26.228 23.062 24.016C23.062 21.79 22.278 19.886 19.758 19.886H17.168V28.104ZM27.3977 29.182C25.9697 29.182 25.0597 28.384 25.0597 27.194C25.0597 25.654 26.1517 25.164 27.9997 24.842C29.1757 24.632 29.9317 24.548 29.9317 23.694C29.9317 22.966 29.4557 22.476 28.3077 22.476C26.9217 22.476 26.4317 22.966 26.3617 24.016H25.3957C25.4657 22.756 26.2637 21.678 28.3357 21.678C29.6517 21.678 30.8137 22.238 30.8137 23.946V27.516C30.8137 28.09 30.8977 28.356 31.2197 28.356C31.2757 28.356 31.3317 28.356 31.4157 28.342V29C31.2617 29.028 31.1077 29.056 30.9397 29.056C30.3377 29.056 29.9877 28.818 29.9317 27.922H29.9037C29.4137 28.734 28.5597 29.182 27.3977 29.182ZM27.5097 28.384C28.9657 28.384 29.9317 27.614 29.9317 26.326V24.996C29.7217 25.29 28.9657 25.458 28.1117 25.598C26.7257 25.85 26.0117 26.2 26.0117 27.11C26.0117 27.936 26.4737 28.384 27.5097 28.384ZM35.5971 21.692C35.8491 21.692 36.0451 21.706 36.2131 21.734V22.63C36.0731 22.602 35.9191 22.588 35.7791 22.588C34.4911 22.588 33.5391 23.624 33.5391 25.01V29H32.6291V21.86H33.5391V23.316H33.5671C33.9311 22.378 34.5891 21.692 35.5971 21.692ZM43.1038 29H42.0258L39.3238 25.052L38.0918 26.2V29H37.1818V18.99H38.0918V25.22L41.6338 21.86H42.7538L39.9398 24.478L43.1038 29Z" fill="#999999"/>
<defs>
<linearGradient id="paint0_linear_29803_5903" x1="196.359" y1="111.005" x2="210.788" y2="111.005" gradientUnits="userSpaceOnUse">
<stop stop-color="#0007B9"/>
<stop offset="1" stop-color="white" stop-opacity="0.01"/>
</linearGradient>
<linearGradient id="paint1_linear_29803_5903" x1="194.235" y1="122.747" x2="213.474" y2="122.747" gradientUnits="userSpaceOnUse">
<stop stop-color="#0007B9"/>
<stop offset="1" stop-color="white" stop-opacity="0.01"/>
</linearGradient>
</defs>
</svg>
